<svg xmlns="http://www.w3.org/2000/svg" width="328.664" height="92.37" viewBox="0 0 328.664 92.37"><g transform="translate(-5189.298 14795.944)"><path d="M10.4,9.052q4.932,0,7.668,2.052a7.125,7.125,0,0,1,2.736,6.084,7.644,7.644,0,0,1-2.682,6.354,11.181,11.181,0,0,1-7.182,2.142h-2.7V34H2.34V9.052Zm.036,12.384a4.606,4.606,0,0,0,3.186-.99,4.2,4.2,0,0,0,1.1-3.258q0-3.924-4.392-3.924H8.244v8.172Zm28.98,2.628a16.82,16.82,0,0,1-.108,2.052H27.468A5.289,5.289,0,0,0,28.836,29.5a4.306,4.306,0,0,0,2.988.972,6.185,6.185,0,0,0,2.232-.414A11.5,11.5,0,0,0,36.4,28.78l2.34,3.168a11.677,11.677,0,0,1-7.452,2.664q-4.644,0-7.128-2.736a10.509,10.509,0,0,1-2.484-7.344,12.639,12.639,0,0,1,1.044-5.238A8.239,8.239,0,0,1,30.6,14.272a8.286,8.286,0,0,1,6.48,2.592A10.358,10.358,0,0,1,39.42,24.064Zm-5.58-1.62q-.072-4.392-3.1-4.392a2.69,2.69,0,0,0-2.286,1.08,6.912,6.912,0,0,0-.99,3.564H33.84ZM59.76,7.288V34H54.72l-.288-2.232A6.331,6.331,0,0,1,49,34.612a6.132,6.132,0,0,1-5.418-2.736,13.192,13.192,0,0,1-1.854-7.488,13.317,13.317,0,0,1,.972-5.22,8.328,8.328,0,0,1,2.754-3.6,6.768,6.768,0,0,1,4.086-1.3,6.15,6.15,0,0,1,4.536,1.8v-9.4Zm-9,23.148a3.864,3.864,0,0,0,3.312-2.16V20.032a5.107,5.107,0,0,0-1.386-1.224,3.2,3.2,0,0,0-1.6-.4,2.861,2.861,0,0,0-2.52,1.476,8.646,8.646,0,0,0-.936,4.536,9.657,9.657,0,0,0,.81,4.68A2.569,2.569,0,0,0,50.76,30.436Zm24.372-22a12.2,12.2,0,0,1,8.316,3.06L80.46,14.632a10.791,10.791,0,0,0-2.466-1.458,7.039,7.039,0,0,0-2.61-.45A5.282,5.282,0,0,0,70.956,14.9Q69.3,17.08,69.3,21.508q0,4.788,1.26,6.786a4.307,4.307,0,0,0,3.924,2,6.928,6.928,0,0,0,3.384-.828V23.812h-3.24l-.576-4.176h9.54V31.984a16.164,16.164,0,0,1-4.284,1.944,16.609,16.609,0,0,1-4.68.684q-5.688,0-8.568-3.33t-2.88-9.774a14.867,14.867,0,0,1,1.566-7.056A10.811,10.811,0,0,1,69.03,9.97,12.222,12.222,0,0,1,75.132,8.44Zm20.592,5.832a8.909,8.909,0,0,1,6.876,2.682q2.484,2.682,2.484,7.506a11.891,11.891,0,0,1-1.134,5.346,8.359,8.359,0,0,1-3.24,3.546,9.53,9.53,0,0,1-4.986,1.26,8.921,8.921,0,0,1-6.858-2.682q-2.5-2.682-2.5-7.506A11.891,11.891,0,0,1,87.5,19.078a8.359,8.359,0,0,1,3.24-3.546A9.53,9.53,0,0,1,95.724,14.272Zm0,4.176a2.822,2.822,0,0,0-2.592,1.458,9.137,9.137,0,0,0-.864,4.518A9.384,9.384,0,0,0,93.114,29a3.059,3.059,0,0,0,5.2-.018,9.137,9.137,0,0,0,.864-4.518,9.384,9.384,0,0,0-.846-4.572A2.819,2.819,0,0,0,95.724,18.448ZM126.072,16a15.416,15.416,0,0,1-5.508.756A6.478,6.478,0,0,1,123.3,18.7a4.85,4.85,0,0,1,.864,2.988,5.8,5.8,0,0,1-.972,3.294,6.476,6.476,0,0,1-2.79,2.286,10.21,10.21,0,0,1-4.266.828,10.819,10.819,0,0,1-2.2-.216,1.019,1.019,0,0,0-.45.45,1.331,1.331,0,0,0-.162.63.994.994,0,0,0,.414.846,3.092,3.092,0,0,0,1.674.306h2.88a9.592,9.592,0,0,1,3.852.72,5.975,5.975,0,0,1,2.556,1.98,4.774,4.774,0,0,1,.9,2.844,5.27,5.27,0,0,1-2.574,4.662q-2.574,1.674-7.434,1.674a16.517,16.517,0,0,1-5.508-.738,5.259,5.259,0,0,1-2.826-2.07,6.347,6.347,0,0,1-.81-3.348h5.112a2.4,2.4,0,0,0,.342,1.368,2.127,2.127,0,0,0,1.242.756,10.176,10.176,0,0,0,2.592.252,6.636,6.636,0,0,0,3.24-.558,1.779,1.779,0,0,0,.9-1.6,1.61,1.61,0,0,0-.684-1.368,3.448,3.448,0,0,0-2.052-.5h-2.772a7.491,7.491,0,0,1-4.41-1.062A3.232,3.232,0,0,1,108.5,30.4a3.822,3.822,0,0,1,.612-2.034,5.027,5.027,0,0,1,1.656-1.638,6.7,6.7,0,0,1-2.61-2.286,5.957,5.957,0,0,1-.81-3.186,6.246,6.246,0,0,1,2.3-5.094,9.291,9.291,0,0,1,6.084-1.89,14.747,14.747,0,0,0,4.878-.576,20.559,20.559,0,0,0,4.122-1.908Zm-10.188,2.016a2.713,2.713,0,0,0-2.106.846A3.31,3.31,0,0,0,113,21.184a3.42,3.42,0,0,0,.774,2.394,3.113,3.113,0,0,0,4.248.018,3.635,3.635,0,0,0,.738-2.484Q118.764,18.016,115.884,18.016ZM13.076,69,11.62,64.156H4.312L2.856,69H.168L6.356,49.708h3.36L15.876,69Zm-8.12-7h6.02l-3-10.08Zm20.692-8.092a4.118,4.118,0,0,1,3.15,1.2,4.626,4.626,0,0,1,1.134,3.3V69H27.356V58.78a3.272,3.272,0,0,0-.588-2.212,2.234,2.234,0,0,0-1.736-.644,3.36,3.36,0,0,0-2.072.672,6.991,6.991,0,0,0-1.68,1.932V69H18.7V54.244h2.212l.224,2.184a5.832,5.832,0,0,1,1.946-1.848A5.026,5.026,0,0,1,25.648,53.908Zm19.4,11.648a2.313,2.313,0,0,0,.308,1.33,1.878,1.878,0,0,0,.924.658L45.7,69.336a3.938,3.938,0,0,1-1.848-.644,2.946,2.946,0,0,1-1.036-1.568,4.95,4.95,0,0,1-4.4,2.212A4.715,4.715,0,0,1,34.972,68.1a4.3,4.3,0,0,1-1.26-3.22,4.23,4.23,0,0,1,1.694-3.612,7.926,7.926,0,0,1,4.8-1.26h2.268V58.92a2.87,2.87,0,0,0-.756-2.24,3.421,3.421,0,0,0-2.324-.672,13,13,0,0,0-3.976.784l-.644-1.876a14.851,14.851,0,0,1,5.1-1.008,5.326,5.326,0,0,1,3.892,1.274,4.874,4.874,0,0,1,1.288,3.626ZM39,67.4a3.846,3.846,0,0,0,3.472-2.3V61.72H40.544q-4.088,0-4.088,3.024a2.769,2.769,0,0,0,.644,1.988A2.518,2.518,0,0,0,39,67.4Zm14,1.932a2.99,2.99,0,0,1-2.254-.854,3.3,3.3,0,0,1-.826-2.394V48.308L52.5,48V66.032a1.508,1.508,0,0,0,.21.9.836.836,0,0,0,.714.28,2.546,2.546,0,0,0,.952-.168l.672,1.792A4.2,4.2,0,0,1,53,69.336ZM63.9,69.084a9.955,9.955,0,0,1-2.422,4.074,7.314,7.314,0,0,1-4.438,1.806l-.28-2.016a7.584,7.584,0,0,0,2.324-.728A4,4,0,0,0,60.466,71a8.528,8.528,0,0,0,.966-2h-.868L55.608,54.244h2.744L62.3,67.124l3.864-12.88h2.66Zm15.316-.756a5.666,5.666,0,0,1-3.3,1.008,3.9,3.9,0,0,1-2.926-1.078,4.3,4.3,0,0,1-1.05-3.122v-8.9H69.356V54.244h2.576V50.912l2.576-.308v3.64h3.5l-.28,1.988h-3.22v8.792a2.714,2.714,0,0,0,.406,1.666,1.624,1.624,0,0,0,1.358.518,4.224,4.224,0,0,0,1.96-.588Zm5.236-14.084V69H81.872V54.244ZM83.132,47.16a1.78,1.78,0,0,1,1.316.5,1.71,1.71,0,0,1,.5,1.26,1.663,1.663,0,0,1-.5,1.246,1.808,1.808,0,0,1-1.316.49,1.771,1.771,0,0,1-1.288-.49,1.663,1.663,0,0,1-.5-1.246,1.709,1.709,0,0,1,.5-1.26A1.744,1.744,0,0,1,83.132,47.16Zm12.012,6.748a7.321,7.321,0,0,1,2.408.378,6.718,6.718,0,0,1,2.1,1.218L98.42,57.128a6.324,6.324,0,0,0-1.526-.826,4.824,4.824,0,0,0-1.638-.266,3.2,3.2,0,0,0-2.786,1.428,7.405,7.405,0,0,0-.994,4.228,7,7,0,0,0,.98,4.13,3.269,3.269,0,0,0,2.8,1.33,4.618,4.618,0,0,0,1.6-.266,8.112,8.112,0,0,0,1.624-.854l1.176,1.68a7.006,7.006,0,0,1-4.508,1.624,5.878,5.878,0,0,1-4.718-2.016A8.309,8.309,0,0,1,88.7,61.748a10.057,10.057,0,0,1,.784-4.116,6.333,6.333,0,0,1,2.226-2.744A5.954,5.954,0,0,1,95.144,53.908Zm12.012,0a7.74,7.74,0,0,1,5.012,1.68l-1.092,1.624a8.912,8.912,0,0,0-1.918-.952,5.942,5.942,0,0,0-1.918-.308,3.373,3.373,0,0,0-1.988.518,1.754,1.754,0,0,0-.042,2.814,7.962,7.962,0,0,0,2.478.98,8.853,8.853,0,0,1,3.682,1.68,3.666,3.666,0,0,1,1.218,2.912,3.775,3.775,0,0,1-1.694,3.332,7.189,7.189,0,0,1-4.13,1.148,8.164,8.164,0,0,1-5.572-1.932l1.372-1.568a6.684,6.684,0,0,0,4.144,1.428,3.942,3.942,0,0,0,2.31-.6,1.9,1.9,0,0,0,.854-1.638,2.161,2.161,0,0,0-.308-1.218,2.5,2.5,0,0,0-1.064-.812,14.6,14.6,0,0,0-2.212-.742,7.549,7.549,0,0,1-3.4-1.652,3.541,3.541,0,0,1-1.05-2.632,3.451,3.451,0,0,1,.686-2.086,4.451,4.451,0,0,1,1.9-1.456A6.911,6.911,0,0,1,107.156,53.908Zm20.664-4.2a11.222,11.222,0,0,1,7.014,2.03q2.646,2.03,2.646,7.518,0,5.348-2.646,7.546a9.725,9.725,0,0,1-6.426,2.2h-4.62V49.708Zm-1.372,2.128V66.9H128.6a5.964,5.964,0,0,0,4.368-1.652q1.68-1.652,1.68-5.992a10.213,10.213,0,0,0-.868-4.69,4.466,4.466,0,0,0-2.212-2.184,8.377,8.377,0,0,0-3.164-.546Zm24.892,13.72a2.313,2.313,0,0,0,.308,1.33,1.878,1.878,0,0,0,.924.658l-.588,1.792a3.938,3.938,0,0,1-1.848-.644,2.946,2.946,0,0,1-1.036-1.568,4.95,4.95,0,0,1-4.4,2.212A4.715,4.715,0,0,1,141.26,68.1a4.3,4.3,0,0,1-1.26-3.22,4.23,4.23,0,0,1,1.694-3.612,7.926,7.926,0,0,1,4.8-1.26h2.268V58.92a2.87,2.87,0,0,0-.756-2.24,3.421,3.421,0,0,0-2.324-.672,13,13,0,0,0-3.976.784l-.644-1.876a14.851,14.851,0,0,1,5.1-1.008,5.326,5.326,0,0,1,3.892,1.274,4.874,4.874,0,0,1,1.288,3.626ZM145.292,67.4a3.846,3.846,0,0,0,3.472-2.3V61.72h-1.932q-4.088,0-4.088,3.024a2.769,2.769,0,0,0,.644,1.988A2.518,2.518,0,0,0,145.292,67.4Zm15.064-13.5a7.74,7.74,0,0,1,5.012,1.68l-1.092,1.624a8.911,8.911,0,0,0-1.918-.952,5.942,5.942,0,0,0-1.918-.308,3.373,3.373,0,0,0-1.988.518,1.754,1.754,0,0,0-.042,2.814,7.962,7.962,0,0,0,2.478.98,8.853,8.853,0,0,1,3.682,1.68,3.666,3.666,0,0,1,1.218,2.912,3.775,3.775,0,0,1-1.694,3.332,7.189,7.189,0,0,1-4.13,1.148,8.164,8.164,0,0,1-5.572-1.932l1.372-1.568a6.684,6.684,0,0,0,4.144,1.428,3.942,3.942,0,0,0,2.31-.6,1.9,1.9,0,0,0,.854-1.638,2.161,2.161,0,0,0-.308-1.218,2.5,2.5,0,0,0-1.064-.812,14.6,14.6,0,0,0-2.212-.742,7.549,7.549,0,0,1-3.4-1.652,3.541,3.541,0,0,1-1.05-2.632,3.451,3.451,0,0,1,.686-2.086,4.451,4.451,0,0,1,1.9-1.456A6.911,6.911,0,0,1,160.356,53.908Zm16.016,0a4.118,4.118,0,0,1,3.15,1.2,4.626,4.626,0,0,1,1.134,3.3V69H178.08V58.78a3.217,3.217,0,0,0-.6-2.212,2.28,2.28,0,0,0-1.75-.644,3.317,3.317,0,0,0-2.044.672A7.118,7.118,0,0,0,172,58.5V69h-2.576V48.336l2.576-.28v8.232A5.222,5.222,0,0,1,176.372,53.908Zm16.212,0a4.706,4.706,0,0,1,4,2.03,9.458,9.458,0,0,1,1.484,5.67,10.839,10.839,0,0,1-.7,4.046,6.059,6.059,0,0,1-2.016,2.716,5.064,5.064,0,0,1-3.08.966,4.877,4.877,0,0,1-3.92-1.96L188.1,69h-2.268V48.308L188.412,48v8.092A4.938,4.938,0,0,1,192.584,53.908Zm-.924,13.384a3.082,3.082,0,0,0,2.674-1.386,7.6,7.6,0,0,0,.966-4.3,7.974,7.974,0,0,0-.9-4.326,2.893,2.893,0,0,0-2.548-1.33q-1.96,0-3.444,2.3V65.3a4.573,4.573,0,0,0,1.442,1.456A3.361,3.361,0,0,0,191.66,67.292Zm16.352-13.384a5.933,5.933,0,0,1,4.83,2.072,8.536,8.536,0,0,1,1.722,5.628,9.81,9.81,0,0,1-.784,4.046,6.148,6.148,0,0,1-2.268,2.716,6.323,6.323,0,0,1-3.528.966,5.974,5.974,0,0,1-4.844-2.072,8.49,8.49,0,0,1-1.736-5.628,9.81,9.81,0,0,1,.784-4.046,6.148,6.148,0,0,1,2.268-2.716A6.374,6.374,0,0,1,208.012,53.908Zm0,2.072q-3.836,0-3.836,5.656,0,5.628,3.808,5.628t3.808-5.656Q211.792,55.98,208.012,55.98Zm20.468,9.576a2.313,2.313,0,0,0,.308,1.33,1.878,1.878,0,0,0,.924.658l-.588,1.792a3.938,3.938,0,0,1-1.848-.644,2.946,2.946,0,0,1-1.036-1.568,4.95,4.95,0,0,1-4.4,2.212A4.715,4.715,0,0,1,218.4,68.1a4.3,4.3,0,0,1-1.26-3.22,4.23,4.23,0,0,1,1.694-3.612,7.926,7.926,0,0,1,4.8-1.26H225.9V58.92a2.87,2.87,0,0,0-.756-2.24,3.421,3.421,0,0,0-2.324-.672,13,13,0,0,0-3.976.784l-.644-1.876a14.851,14.851,0,0,1,5.1-1.008,5.326,5.326,0,0,1,3.892,1.274,4.874,4.874,0,0,1,1.288,3.626ZM222.432,67.4a3.846,3.846,0,0,0,3.472-2.3V61.72h-1.932q-4.088,0-4.088,3.024a2.769,2.769,0,0,0,.644,1.988A2.518,2.518,0,0,0,222.432,67.4Zm17.752-13.5a5.993,5.993,0,0,1,1.456.168l-.476,2.52a5.309,5.309,0,0,0-1.288-.168,2.738,2.738,0,0,0-2.212,1.008,7.49,7.49,0,0,0-1.316,3.136V69h-2.576V54.244h2.212l.252,3a5.6,5.6,0,0,1,1.6-2.492A3.563,3.563,0,0,1,240.184,53.908Zm14.98-5.6V69H252.9l-.252-2.044a5.339,5.339,0,0,1-1.82,1.75,5.072,5.072,0,0,1-6.538-1.442,9.454,9.454,0,0,1-1.47-5.572,10.866,10.866,0,0,1,.7-4.032,6.242,6.242,0,0,1,2.016-2.758,4.967,4.967,0,0,1,3.08-.994,5.3,5.3,0,0,1,3.976,1.82V48Zm-6.216,18.984a3.618,3.618,0,0,0,2.016-.546,6.289,6.289,0,0,0,1.624-1.638V57.884a5.577,5.577,0,0,0-1.554-1.442,3.58,3.58,0,0,0-1.862-.49,2.989,2.989,0,0,0-2.646,1.428,7.819,7.819,0,0,0-.938,4.256,8.241,8.241,0,0,0,.868,4.256A2.767,2.767,0,0,0,248.948,67.292Z" transform="translate(5262.798 -14778.538)"/><g transform="translate(4976.716 -14964.761)"><g transform="translate(212.583 168.816)"><g transform="translate(0)"><path d="M699.764,358.463a30.3,30.3,0,0,0-4.21.3v-.3H669.023v86.406h26.531V418.58a30.206,30.206,0,1,0,4.21-60.117Z" transform="translate(-669.023 -358.463)" fill="#e4001b"/><g transform="translate(7.16 6.925)"><path d="M695.723,361.907a23.139,23.139,0,1,0,23.138,23.138A23.166,23.166,0,0,0,695.723,361.907Zm0,45.07a21.931,21.931,0,1,1,21.929-21.932A21.955,21.955,0,0,1,695.723,406.977Z" transform="translate(-672.584 -361.907)" fill="#fff" stroke="#fff" stroke-width="2"/><path d="M691.244,366.339a14.227,14.227,0,1,0,14.227,14.227A14.243,14.243,0,0,0,691.244,366.339Zm0,27.248a13.02,13.02,0,1,1,13.018-13.021A13.035,13.035,0,0,1,691.244,393.587Z" transform="translate(-668.104 -357.428)" fill="#fff" stroke="#fff" stroke-width="2"/><ellipse cx="5.619" cy="5.62" rx="5.619" ry="5.62" transform="translate(17.519 17.52)" fill="#fff"/></g></g></g></g></g></svg>