<svg xmlns="http://www.w3.org/2000/svg" xmlns:xlink="http://www.w3.org/1999/xlink" width="32" height="29" viewBox="0 0 32 29">
  <defs>
    <filter id="Polygon_14" x="0" y="0" width="32" height="29" filterUnits="userSpaceOnUse">
      <feOffset input="SourceAlpha"/>
      <feGaussianBlur stdDeviation="1" result="blur"/>
      <feFlood flood-opacity="0.271"/>
      <feComposite operator="in" in2="blur"/>
      <feComposite in="SourceGraphic"/>
    </filter>
  </defs>
  <g id="Group_3336" data-name="Group 3336" transform="translate(-612 -287)">
    <g transform="matrix(1, 0, 0, 1, 612, 287)" filter="url(#Polygon_14)">
      <g id="Polygon_14-2" data-name="Polygon 14" transform="translate(3 3)" fill="#ffbc36">
        <path d="M 20.85830116271973 22.50000381469727 L 5.141700744628906 22.50000381469727 C 4.242671012878418 22.50000381469727 3.435451030731201 22.03641510009766 2.982380867004395 21.25989532470703 C 2.529310941696167 20.48337364196777 2.522920846939087 19.55251502990723 2.965291023254395 18.76985549926758 L 10.8235912322998 4.866714477539062 C 11.27302074432373 4.071564674377441 12.08663082122803 3.596854686737061 13.00000095367432 3.596854686737061 C 13.91336059570312 3.596854686737061 14.7269811630249 4.071564674377441 15.17641067504883 4.866714477539062 L 23.03471183776855 18.76985549926758 C 23.47708129882812 19.55251502990723 23.4706916809082 20.48337364196777 23.01762008666992 21.25989532470703 C 22.56455039978027 22.03641510009766 21.75733184814453 22.50000381469727 20.85830116271973 22.50000381469727 Z" stroke="none"/>
        <path d="M 13.00000095367432 4.096843719482422 C 12.26930141448975 4.096843719482422 11.61841106414795 4.476613998413086 11.25887107849121 5.112733840942383 L 3.400571823120117 19.0158748626709 C 3.046670913696289 19.64201354980469 3.051780700683594 20.38670349121094 3.414241790771484 21.00791549682617 C 3.776700973510742 21.62913513183594 4.422481536865234 22.00000381469727 5.141700744628906 22.00000381469727 L 20.85830116271973 22.00000381469727 C 21.5775203704834 22.00000381469727 22.22330093383789 21.62913513183594 22.58576202392578 21.00791549682617 C 22.94822120666504 20.38670349121094 22.95333099365234 19.64201354980469 22.59943008422852 19.01588439941406 L 14.74113082885742 5.112733840942383 C 14.38158130645752 4.476613998413086 13.73069095611572 4.096843719482422 13.00000095367432 4.096843719482422 M 12.99999713897705 3.096847534179688 C 14.01874351501465 3.096847534179688 15.03749084472656 3.604789733886719 15.61169052124023 4.620674133300781 L 23.46999168395996 18.52382469177246 C 24.60035133361816 20.52370452880859 23.15552139282227 23.00000381469727 20.85830116271973 23.00000381469727 L 5.141700744628906 23.00000381469727 C 2.844480514526367 23.00000381469727 1.399650573730469 20.52370452880859 2.530010223388672 18.52382469177246 L 10.3883113861084 4.620674133300781 C 10.96250629425049 3.604789733886719 11.98125076293945 3.096847534179688 12.99999713897705 3.096847534179688 Z" stroke="none" fill="#f5ae20"/>
      </g>
    </g>
    <path id="Path_5878" data-name="Path 5878" d="M8351.066,5228.335v6.572" transform="translate(-7724.964 -4925.863)" fill="none" stroke="#eba10c" stroke-linecap="round" stroke-width="1.5"/>
    <path id="Path_5879" data-name="Path 5879" d="M8351.066,5228.335v6.572" transform="translate(-7722.831 -4925.863)" fill="none" stroke="#eba10c" stroke-linecap="round" stroke-width="1.5"/>
    <path id="Path_5880" data-name="Path 5880" d="M8351.066,5228.335v6.572" transform="translate(-7720.699 -4925.863)" fill="none" stroke="#eba10c" stroke-linecap="round" stroke-width="1.5"/>
  </g>
</svg>
